<svg xmlns="http://www.w3.org/2000/svg" height="1024" preserveAspectRatio="none" style="display: block;" version="1.1" viewBox="0 0 2048 2048" width="1024">
<path d="M 0 0 L 2048 0 L 2048 2048 L 0 2048 L 0 0 z" fill="rgb(255,255,255)" transform="translate(0,0)"></path>
<path d="M 571.566 280.439 C 592.038 279.552 615.198 280.052 635.776 280.06 L 743.172 280.173 L 1072.62 280.378 L 1345.14 280.15 L 1428.3 280.111 C 1462.52 280.119 1491.52 279.406 1525.42 285.973 C 1672.39 314.441 1777.62 448.44 1772.05 597.817 C 1771.67 608.079 1772.05 619.749 1772.04 630.242 L 1772.12 732.172 L 1772.26 1105.88 L 1772.91 1345.97 C 1773.09 1374.77 1773.03 1403.56 1772.74 1432.36 C 1772.41 1464.43 1772.36 1492.27 1766.23 1523.88 C 1755.16 1580.59 1728.34 1633.02 1688.85 1675.19 C 1636.13 1732.4 1557.1 1765.3 1480.05 1768.44 C 1439.81 1769.24 1396.69 1768.16 1356.05 1768.41 L 869.476 1768.89 C 817.068 1769 762.82 1767.83 710.784 1768.47 C 680.741 1768.89 650.695 1769.09 620.649 1769.06 C 587.136 1769.11 561.346 1770.24 527.956 1764.25 C 473.509 1754.65 422.759 1730.24 381.277 1693.68 C 320.997 1640.52 284.33 1565.57 279.355 1485.34 C 278.048 1461.64 278.927 1435.9 278.975 1411.96 L 279.044 1288.14 L 278.956 901.974 L 278.748 674.238 C 278.672 633.026 275.366 573.835 282.672 533.905 C 308.969 390.2 425.067 288.142 571.566 280.439 z" fill="rgb(242,243,234)" transform="translate(0,0)"></path>
<path d="M 1024.23 424.163 L 1025.77 424.163 C 1027.87 459.82 1047.02 499.927 1073.9 523.596 C 1097.73 544.576 1118.14 549.541 1147.66 557.934 C 1156.55 560.461 1168.47 564.787 1176.94 566.805 C 1207.09 546.067 1237.35 526.586 1271.69 513.343 C 1339.28 487.272 1406.4 481.225 1478.1 484.112 C 1478.66 485.385 1478.55 485.121 1478.77 486.556 C 1424.37 498.72 1381.09 530.856 1361.71 584.855 C 1352.59 610.276 1341.26 664.945 1341.93 692.182 C 1366.72 692.239 1413.89 690.312 1437.51 683.402 C 1498.05 665.551 1532.7 632.191 1548.47 570.648 L 1552.1 568.714 L 1552.17 1078.42 L 1552.19 1199.16 C 1552.24 1229.44 1553.65 1270.17 1547.74 1299.2 C 1538.38 1346.52 1515.23 1390.02 1481.19 1424.2 C 1443.64 1460.89 1395.57 1484.93 1343.69 1492.97 C 1323.41 1495.92 1304.19 1495.76 1283.78 1495.74 C 1241.22 1495.71 1198.24 1494.13 1155.72 1496.14 C 1144.61 1496.67 1132 1501.57 1121.76 1502.34 C 1084.16 1517.12 1053.78 1542.82 1037.28 1580.3 C 1031.31 1594.11 1027.42 1608.74 1025.75 1623.69 C 1024.07 1623.45 1024.29 1623.27 1023.16 1621.74 C 1018.35 1567.08 977.866 1520.51 927.172 1502.12 C 917.849 1500.09 904.64 1496.42 895.38 1495.93 C 838.491 1492.93 780.35 1498.73 723.502 1494.49 C 660.004 1490.23 600.78 1460.99 558.794 1413.16 C 491.325 1334.86 498.65 1269.59 498.767 1174.17 L 498.914 978.369 L 498.794 706.326 L 498.43 621.854 C 498.332 600.141 497.892 579.166 499.546 557.479 C 512.178 627.979 544.871 666.731 614.92 684.286 C 641.099 690.025 680.459 691.032 707.564 692.065 C 703.836 599.24 678.986 506.093 574.134 486.612 C 573.99 485.098 573.91 485.208 574.734 484.072 C 688.353 482.692 782.017 495.079 874.039 565.503 C 874.532 565.88 876.308 566.522 877.104 566.268 C 912.576 553.838 943.236 551.503 973.924 525.569 C 1003.85 500.28 1020.82 462.797 1024.23 424.163 z" fill="rgb(65,103,4)" transform="translate(0,0)"></path>
<path d="M 1024.23 424.163 L 1025.77 424.163 C 1027.87 459.82 1047.02 499.927 1073.9 523.596 C 1097.73 544.576 1118.14 549.541 1147.66 557.934 C 1156.55 560.461 1168.47 564.787 1176.94 566.805 C 1207.09 546.067 1237.35 526.586 1271.69 513.343 C 1339.28 487.272 1406.4 481.225 1478.1 484.112 C 1478.66 485.385 1478.55 485.121 1478.77 486.556 C 1424.37 498.72 1381.09 530.856 1361.71 584.855 C 1352.59 610.276 1341.26 664.945 1341.93 692.182 C 1340.4 726.711 1344.82 764.916 1338.69 799.537 C 1325.09 876.31 1284.44 945.593 1212.85 981.484 C 1180.96 997.473 1132.46 1014.97 1105.54 1034.79 C 1052.12 1074.13 1033.59 1122.71 1024.36 1185.56 C 1022.37 1168.14 1020.37 1153.42 1016.13 1136.47 C 1005.28 1093.07 973.171 1047.44 933.896 1025.38 C 914.314 1014.38 883.579 1002.41 861.939 991.703 C 833.658 977.715 813.829 969.827 789.127 947.076 C 735.085 897.304 709.896 827.713 707.202 755.482 C 706.417 734.435 708.848 713.381 707.643 693.241 L 707.564 692.065 C 703.836 599.24 678.986 506.093 574.134 486.612 C 573.99 485.098 573.91 485.208 574.734 484.072 C 688.353 482.692 782.017 495.079 874.039 565.503 C 874.532 565.88 876.308 566.522 877.104 566.268 C 912.576 553.838 943.236 551.503 973.924 525.569 C 1003.85 500.28 1020.82 462.797 1024.23 424.163 z" fill="rgb(154,199,71)" transform="translate(0,0)"></path>
<path d="M 1024.23 424.163 L 1025.77 424.163 C 1027.87 459.82 1047.02 499.927 1073.9 523.596 C 1097.73 544.576 1118.14 549.541 1147.66 557.934 C 1156.55 560.461 1168.47 564.787 1176.94 566.805 C 1166.73 576.861 1155.07 585.833 1144.7 595.955 C 1117.87 622.126 1084.25 662.516 1068.59 696.474 C 1031.51 675.122 1030.07 659.675 1004.78 629.736 C 980.465 600.946 935.025 586.665 897.949 584.849 C 892.273 580.361 881.622 571.531 877.104 566.268 C 912.576 553.838 943.236 551.503 973.924 525.569 C 1003.85 500.28 1020.82 462.797 1024.23 424.163 z" fill="rgb(201,111,72)" transform="translate(0,0)"></path>
<path d="M 897.949 584.849 C 935.025 586.665 980.465 600.946 1004.78 629.736 C 1030.07 659.675 1031.51 675.122 1068.59 696.474 L 1067.82 698.315 C 1033.69 710.691 1022.55 709.991 987.852 699.339 C 959.373 648.934 939.932 625.735 897.949 584.849 z" fill="rgb(135,65,23)" transform="translate(0,0)"></path>
<path d="M 987.852 699.339 C 1022.55 709.991 1033.69 710.691 1067.82 698.315 C 1053.33 733.292 1031 783.73 1028.4 822.261 C 1027.87 822.997 1027.95 823.112 1027.74 824.045 C 1020.87 770.101 1011.17 747.293 987.852 699.339 z" fill="rgb(65,103,4)" transform="translate(0,0)"></path>
<path d="M 1027.74 824.045 C 1027.95 823.112 1027.87 822.997 1028.4 822.261 C 1028.49 823.073 1028.76 824.431 1028.35 825.193 C 1028.15 824.81 1027.94 824.428 1027.74 824.045 z" fill="rgb(132,170,67)" transform="translate(0,0)"></path>
<path d="M 1024.05 1053.03 C 1024.31 1045.56 1021.74 1027.34 1020.75 1019.74 C 1013.98 967.893 997.557 916.811 971.225 871.434 C 929.153 798.329 863.707 741.507 785.42 710.112 C 769.752 704.007 754.703 700.108 738.51 695.749 C 743.393 695.242 761.459 698.653 767.268 699.599 C 818.52 707.945 873.337 728.193 916.49 757.384 C 957.961 785.438 997.826 835.453 1014.04 882.772 C 1020.64 902.031 1023.94 917.981 1027.61 937.843 C 1035.82 887.826 1045.97 860.242 1075.06 817.727 C 1125.62 743.806 1214.2 711.384 1300.2 697.769 L 1302.32 699.628 C 1286.77 702.839 1267.8 710.696 1253.22 716.965 C 1133.71 768.337 1053.51 885.518 1030.79 1011.45 C 1028.4 1024.72 1025.74 1039.5 1026.03 1052.95 L 1024.05 1053.03 z" fill="rgb(65,103,4)" transform="translate(0,0)"></path>
<path d="M 1300.2 697.769 C 1301.93 697.312 1314.67 694.107 1315.07 695.845 C 1314.58 696.913 1304.12 699.208 1302.32 699.628 L 1300.2 697.769 z" fill="rgb(87,132,25)" transform="translate(0,0)"></path>
<path d="M 1024.05 1053.03 L 1026.03 1052.95 C 1026.08 1054.82 1026.4 1063.43 1025 1064.38 C 1023.69 1063.9 1024.01 1054.39 1024.05 1053.03 z" fill="rgb(132,170,67)" transform="translate(0,0)"></path>
<path d="M 927.172 1502.12 C 917.849 1500.09 904.64 1496.42 895.38 1495.93 C 838.491 1492.93 780.35 1498.73 723.502 1494.49 C 660.004 1490.23 600.78 1460.99 558.794 1413.16 C 491.325 1334.86 498.65 1269.59 498.767 1174.17 L 498.914 978.369 L 498.794 706.326 L 498.43 621.854 C 498.332 600.141 497.892 579.166 499.546 557.479 C 512.178 627.979 544.871 666.731 614.92 684.286 C 613.645 689.227 614.207 714.667 614.215 721.485 L 614.186 797.184 L 614.073 1013.59 C 614.098 1050.76 613.297 1091.79 614.467 1128.67 C 614.896 1145.73 616.438 1162.75 619.083 1179.61 C 636.062 1285.8 699.597 1376.65 789.268 1435.24 C 811.507 1449.77 843.172 1464.77 867.59 1476.57 C 878.04 1481.5 888.657 1486.06 899.42 1490.26 C 907.081 1493.26 920.4 1497.55 926.791 1501.86 L 927.172 1502.12 z" fill="rgb(154,199,71)" transform="translate(0,0)"></path>
<path d="M 1548.47 570.648 L 1552.1 568.714 L 1552.17 1078.42 L 1552.19 1199.16 C 1552.24 1229.44 1553.65 1270.17 1547.74 1299.2 C 1538.38 1346.52 1515.23 1390.02 1481.19 1424.2 C 1443.64 1460.89 1395.57 1484.93 1343.69 1492.97 C 1323.41 1495.92 1304.19 1495.76 1283.78 1495.74 C 1241.22 1495.71 1198.24 1494.13 1155.72 1496.14 C 1144.61 1496.67 1132 1501.57 1121.76 1502.34 C 1133.46 1495.65 1158.43 1487.46 1172.18 1481.15 C 1234.84 1452.39 1275.06 1433.74 1324.61 1384.22 C 1388.65 1320.22 1425.18 1245.45 1435.82 1155.49 C 1438.6 1132 1437.91 1101.87 1437.9 1078.04 L 1437.65 969.571 L 1437.51 683.402 C 1498.05 665.551 1532.7 632.191 1548.47 570.648 z" fill="rgb(154,199,71)" transform="translate(0,0)"></path>
<path d="M 710.99 973.746 L 713.498 970.024 C 723.135 1010.27 740.53 1046.25 777.043 1068.41 C 794.88 1079.24 812.052 1083.93 831.168 1091.91 C 926.734 1131.79 991.262 1219.78 1016.25 1318.38 C 1020.95 1336.9 1023.19 1355.49 1025.47 1374.41 C 1037.64 1281.38 1077.9 1189.59 1153.75 1131.21 C 1172.86 1116.65 1193.57 1104.32 1215.49 1094.47 C 1231.28 1087.53 1248.09 1082.72 1263.62 1075.23 C 1307.18 1054.23 1327.54 1015.89 1338.54 970.985 L 1341.07 972.948 L 1341.3 1059.57 C 1341.35 1082.1 1342.07 1106.65 1339.48 1128.89 C 1332.29 1192.97 1304.04 1252.86 1259.15 1299.15 C 1230.83 1327.95 1199.16 1347.17 1161.85 1361.8 C 1147.74 1367.34 1127.96 1374.01 1115.17 1381.04 C 1057.53 1412.73 1030.95 1462.54 1026.19 1526.16 C 1017.73 1469.01 1006.01 1432.29 957.567 1394.59 C 932.55 1375.12 902.669 1368.7 873.664 1355.02 C 788.415 1315.57 728.886 1235.7 715.444 1142.73 C 708.122 1095.01 711.477 1023.74 710.99 973.746 z" fill="rgb(154,199,71)" transform="translate(0,0)"></path>
<path d="M 1338.54 970.985 L 1339.3 965.365 C 1339.4 964.511 1339.56 963.435 1340.16 962.814 L 1340.37 962.759 C 1341.31 963.599 1341.08 971.636 1341.07 972.948 L 1338.54 970.985 z" fill="rgb(132,170,67)" transform="translate(0,0)"></path>
<path d="M 710.99 973.746 C 710.981 971.884 710.728 964.141 711.553 962.984 C 712.98 964.315 713.117 968.261 713.498 970.024 L 710.99 973.746 z" fill="rgb(132,170,67)" transform="translate(0,0)"></path>
<path d="M 1023.16 1621.74 C 1024.29 1623.27 1024.07 1623.45 1025.75 1623.69 C 1025.81 1626.34 1025.69 1626.83 1025.38 1629.63 L 1024.43 1630.58 L 1024.96 1630.91 C 1024.82 1631.03 1024.69 1631.16 1024.55 1631.28 C 1023.37 1630.27 1023.14 1623.47 1023.16 1621.74 z" fill="rgb(132,170,67)" transform="translate(0,0)"></path>
<path d="M 1478.1 484.112 C 1487.87 483.463 1488.53 486.188 1478.77 486.556 C 1478.55 485.121 1478.66 485.385 1478.1 484.112 z" fill="rgb(191,211,140)" transform="translate(0,0)"></path>
<path d="M 574.134 486.612 C 573.14 486.556 567.746 486.334 567.332 485.26 C 567.593 483.481 573.613 484.016 574.734 484.072 C 573.91 485.208 573.99 485.098 574.134 486.612 z" fill="rgb(191,211,140)" transform="translate(0,0)"></path>
<path d="M 1548.47 570.648 C 1548.85 569.228 1550.23 561.836 1551.32 561.213 L 1551.48 561.268 C 1552.23 562.87 1552.07 566.823 1552.1 568.714 L 1548.47 570.648 z" fill="rgb(191,211,140)" transform="translate(0,0)"></path>
<path d="M 1024.23 424.163 L 1024.26 422.69 C 1024.22 419.63 1025.67 419.031 1025.77 424.163 L 1024.23 424.163 z" fill="rgb(214,180,152)" transform="translate(0,0)"></path>
</svg>
